PathFileType	4	(X/Y/Z)	Patient4_TMGait_0pt7_02_left_45.trc.trc
DataRate	CameraRate	NumFrames	NumMarkers	Units	OrigDataRate	OrigDataStartFrame	OrigNumFrames
88.050314465409	88.050314465409	6	33	mm	88.050314465409	124	       141
Frame#	Time	Sacral			L.Shoulder			Chest			R.Shoulder			Neck			R.ASIS			L.ASIS			R.Thigh.Superior			R.Thigh.Lateral			R.Thigh.Inferior			R.Patella			L.Thigh.Superior			L.Thigh.Lateral			L.Thigh.Inferior			L.Patella			L.Shank.Superior			L.Shank.Lateral			L.Shank.Inferior			R.Shank.Superior			R.Shank.Lateral			R.Shank.Inferior			R.Heel			R.Midfoot.Superior			R.Midfoot.Lateral			R.Toe			L.Heel			L.Midfoot.Lateral			L.Midfoot.Superior			L.Toe			L.Elbow			L.Wrist			R.Elbow			R.Wrist			
		X1	Y1	Z1	X2	Y2	Z2	X3	Y3	Z3	X4	Y4	Z4	X5	Y5	Z5	X6	Y6	Z6	X7	Y7	Z7	X8	Y8	Z8	X9	Y9	Z9	X10	Y10	Z10	X11	Y11	Z11	X12	Y12	Z12	X13	Y13	Z13	X14	Y14	Z14	X15	Y15	Z15	X16	Y16	Z16	X17	Y17	Z17	X18	Y18	Z18	X19	Y19	Z19	X20	Y20	Z20	X21	Y21	Z21	X22	Y22	Z22	X23	Y23	Z23	X24	Y24	Z24	X25	Y25	Z25	X26	Y26	Z26	X27	Y27	Z27	X28	Y28	Z28	X29	Y29	Z29	X30	Y30	Z30	X31	Y31	Z31	X32	Y32	Z32	X33	Y33	Z33	

124	52.906928571429	753.865193754276	1005.352021114792	490.035974260546	944.549179405662	1412.704771103674	289.611129309859	1055.965845081165	1339.794730428601	443.907496989578	993.830215195226	1428.585798738857	618.179037922119	960.570643882556	1477.359394817648	443.094342466052	976.073324480789	927.831897711191	603.937733048776	960.761165360300	939.097970520230	328.776364762123	970.062542189082	714.336478100724	576.648031837851	863.677892356547	624.009960382342	639.260310767355	920.643475892794	556.348388775361	557.528043978962	899.748914113773	469.468688406569	560.620145416156	1035.063004432672	767.463648499336	372.053384408944	1000.480559122549	640.405804909583	285.562877363638	1100.482366456794	584.996700066730	357.654727681472	1128.159399807945	515.418278610645	353.582084986269	1106.989693155621	441.090171464910	338.668394216565	1036.365406763415	316.531473814152	280.171689351325	1113.241090335073	211.173276491759	338.406555662751	856.671712159030	387.841254462600	569.113405860097	772.526555516771	298.758209116112	638.146627626934	788.317879753993	198.826116573696	571.557725783504	626.916505592779	46.833206538694	556.073012035653	802.513625478555	97.005288686097	578.510111168937	715.411455389699	38.760067582647	623.869716377668	922.610081878885	38.904826042807	598.113929502620	1017.016246157819	38.594517444188	365.927153143834	1095.714869879058	42.166155133090	290.084898123634	1169.497260326114	112.541828273030	319.779759731866	1302.880748361501	75.742220203017	299.767510896534	763.936631955678	1109.985666899128	211.417841942126	688.446912899295	862.128326171461	243.581774628341	1151.330194160881	1133.756584454938	720.410141018253	1330.778071817849	1261.322550636053	606.143159860343	
125	52.918285714286	754.715347457958	1003.322513543802	487.377934292346	944.308464288412	1411.563407288552	287.485071483705	1055.553649827453	1339.144877990183	442.141609428934	992.252546719568	1427.461849317451	616.241186082409	959.667072193096	1476.254185057385	441.037986344371	977.026290416938	926.264536291721	601.601836347728	961.963641181689	937.879130017492	326.744630683712	971.141374028377	712.739070024389	574.498674962621	864.409318349149	622.445968684573	637.068666354035	921.415577666989	554.467272056634	555.643062907953	900.031690682171	466.596318283139	558.916743364436	1035.036520016349	763.038464588843	368.559039392803	996.176120344789	636.712297792879	283.550123344436	1095.836765567037	580.243140161073	355.230780037043	1121.591557511398	510.918395386536	351.881486932656	1101.383355320964	436.879594001907	336.978429819895	1031.405258717719	311.674413539582	279.528164707562	1108.973289243134	207.176285913001	338.164690859848	855.065696242428	385.782282703870	567.515701924686	769.311547201576	298.507993274830	637.164451483069	782.804296270202	198.167606272010	570.925905848090	618.957166614858	48.127971332618	556.289300745302	794.935838423189	97.156957987981	578.561857285206	707.516703476356	39.340475177952	623.978377508913	914.708262368157	38.638768342285	598.163458483639	1012.624028034278	36.430411663913	366.953708385048	1091.153107703321	38.819554243079	290.847495015632	1165.841340064581	107.762127390979	320.535468864023	1298.789846161454	68.894819318726	300.534994360909	763.936593267750	1108.874926059747	209.709505569475	686.910892302362	861.494673418023	242.190543283531	1154.703355102581	1135.634444996453	717.295052049000	1327.880150250966	1270.541740888369	602.355365227121	
126	52.929642857143	755.412840689808	1001.591531908864	484.794436236633	944.075681899486	1410.596618465590	285.235782250070	1055.208927464640	1338.667835427948	440.220476346671	990.873434505424	1426.549763752264	614.229663633103	958.941232076206	1475.402786650026	438.794743581373	977.910412440809	924.861968145906	599.126399475326	962.872067545939	937.126050148010	324.578045817039	972.558752860227	711.375505896932	572.128594433177	865.791090508693	620.920836252971	634.701480038809	923.068214273544	552.672329173155	553.637695578590	901.365421537794	463.636812164701	557.229241262566	1035.311133916595	759.868771286777	364.781319897169	992.579095467456	634.204820390518	281.475432976245	1092.106242742545	576.887235867061	352.452172936449	1115.996948595456	507.613151338362	349.932292153235	1096.540178534180	433.632562596908	335.278097875585	1026.691405043308	308.199366992328	278.574646148800	1104.022705586808	204.096022998011	337.847550329374	854.248905993734	383.764943403578	565.909185636496	766.693049108839	298.551978608180	636.136293323869	777.728802049544	197.795568175654	570.353892684543	611.130881585396	50.153102519816	556.567334125914	787.652761524176	97.404094488385	578.664834685040	699.719089700176	40.261816584681	624.107841624293	906.842075418884	38.356914443757	598.201963554888	1006.488439366805	35.488477047990	367.776385671469	1084.888088512696	36.523034349575	291.438262151230	1160.714690286908	103.814614323154	321.195082010129	1293.124909634515	62.478297492924	301.218229689307	764.785302116561	1107.232526836032	207.827308525381	686.625605072647	860.192467393483	240.378471073186	1157.153417942215	1137.009715969809	714.486200376521	1324.594661805207	1278.277849502611	599.047828756041	
127	52.941000000000	755.924055370420	1000.275507331944	482.307449882749	943.839313647227	1409.899631667458	282.915459708843	1054.932325990732	1338.403029175945	438.157652296213	989.789695169291	1425.919453837921	612.162818839891	958.416488887836	1474.875820604149	436.421998893339	978.664443500522	923.721352072778	596.495530741336	963.448425124396	936.903025241485	322.214005086300	974.241213026894	710.338363266937	569.526195134352	867.816116543823	619.511558755406	632.196545526179	925.606243580701	551.061736020952	551.542843448453	903.801467167286	460.689806434533	555.664493068556	1035.846141832159	758.060127209136	360.751534927952	989.699908676714	632.853849697811	279.367847971908	1089.232057150515	574.847904427402	349.373564912766	1111.368646899311	505.464225838690	347.807403884962	1092.451258309930	431.346692278959	333.624172690485	1022.363917653760	306.023945683738	277.278530173238	1098.619830789648	201.893992458862	337.456194427366	854.277393800282	381.881898135069	564.390893577755	764.710343288621	299.008970499320	635.100136985168	773.180156793051	197.821531033813	569.895970136067	603.529858634533	53.090173278243	556.895106501314	780.754426703455	97.767071513756	578.830921007846	692.068553177899	41.627341559292	624.251419865935	899.014056785447	38.071125846708	598.221240573671	999.123575280243	35.419887365849	368.330883888509	1077.442218254275	35.126038645666	291.809757553412	1154.455391231435	100.783124805189	321.696559659936	1286.319109608837	56.945102357127	301.755393680133	766.463176378781	1105.188856345625	205.766623789860	687.651148378847	858.304236875777	238.119828230450	1158.639987623171	1137.817551890388	712.009258024485	1321.006805601129	1284.480803321525	596.197162719716	
128	52.952357142857	756.246813306867	999.448193925727	479.911496254991	943.585599584701	1409.548071201303	280.577157158110	1054.714904840795	1338.377055248580	435.976220238583	989.062757904155	1425.620820780391	610.059379062718	958.091364206201	1474.719126914391	433.987510561252	979.244196804825	922.926624756355	593.698610397947	963.699965363966	937.225966248602	319.599154677963	976.131775705900	709.704545645658	566.701265529490	870.476237787540	618.288199748789	629.603893675031	929.030968726611	549.728820826559	549.402548013538	907.372157386599	457.860785856309	554.336518480399	1036.577284433858	757.562759496466	356.524901214419	987.449666218312	632.505912853905	277.254904865816	1087.043532780874	573.907527819620	346.085718812037	1107.574227211458	504.307697350236	345.597754272368	1088.987531803999	429.914730044426	332.059004921728	1018.417031639217	304.955036712271	275.686726654465	1092.930959889449	200.459568646730	337.012982632481	855.209368743577	380.222692737673	563.062674659452	763.408958044505	299.991393496981	634.093506951699	769.258656311499	198.347930768632	569.603075669310	596.271646283798	57.109546900094	557.252700267614	774.332154895674	98.269108821216	579.068561434726	684.629872615760	43.548190339527	624.399612189686	891.227000774672	37.791749629349	598.213927863060	990.998094057456	35.887976668586	368.607488518278	1069.282315414002	34.439318769327	291.958824079602	1147.382667020690	98.656632061038	322.016672372621	1278.761817577653	52.571477617968	302.115571751537	768.923552068748	1102.894236580810	203.524554717635	690.043396025127	855.936278246930	235.401284238273	1159.122606944477	1138.019637104453	709.876425990880	1317.196825854542	1289.105464443242	593.765908239373	
129	52.963714285714	756.403333634317	999.133929667922	477.572065286915	943.299257588601	1409.588266260641	278.266847924706	1054.537347414778	1338.603133170024	433.706403691709	988.701798091194	1425.676428242366	607.937378004872	957.937140881965	1474.948159628331	431.559059497574	979.625616274847	922.534961374988	590.735578318957	963.676417393045	938.061906967078	316.706249017254	978.199130605999	709.525103304838	563.690240746631	873.761175581349	617.305578528520	626.980775302291	933.338420422007	548.750601400808	547.270852517556	912.082721243561	455.251777002250	553.345377458364	1037.416241116105	758.168437771375	352.175348509642	985.643659309561	632.910133259566	275.161419840128	1085.283883965710	573.752958380957	342.707066035093	1104.376155920992	503.890218594629	343.403708731844	1085.924879744540	429.154161317860	330.603587867571	1014.714733092722	304.724593785993	273.912583213743	1087.056784195588	199.632548793009	336.547590804510	857.099240982396	378.866439871622	562.012324577905	762.840874058115	301.593208363728	633.144960265295	766.068905092991	199.458905446289	569.512268074148	589.496167224277	62.357359784268	557.613633791842	768.471728923491	98.938655745239	579.379254908030	677.482468073888	46.139608277824	624.540339796652	883.485431177643	37.524563062237	598.174325913690	982.495394411348	36.605745909058	368.639057703216	1060.783292412410	34.260656517336	291.915716209249	1139.776770360048	97.338118524183	322.165622914868	1270.774455558761	49.437509425924	302.298305395611	772.091845743230	1100.503976099147	201.096238269747	693.851755885320	853.209796080725	232.223406875643	1158.559050889326	1137.609092033608	708.083097096830	1313.239061918986	1292.112273166152	591.706213676903	
